<?xml version="1.0" standalone="no"?><!DOCTYPE svg PUBLIC "-//W3C//DTD SVG 1.1//EN" "http://www.w3.org/Graphics/SVG/1.1/DTD/svg11.dtd"><svg t="1711939674840" class="icon" viewBox="0 0 1024 1024" version="1.1" xmlns="http://www.w3.org/2000/svg" p-id="1033" xmlns:xlink="http://www.w3.org/1999/xlink" width="200" height="200"><path d="M445.164232 1023.125189c-89.258027-7.640612-170.444433-63.554223-241.423764-166.173526C152.156538 782.269574 115.226911 707.254432 94.107475 634.257196c-25.233613-87.35767-26.97724-169.719554-5.132925-244.891426C115.070181 299.755099 174.059628 221.05679 264.29722 155.817714c72.801323-52.641861 164.331943-95.703569 272.064579-128.009646C593.078653 10.783216 654.125188-4.223731 716.17088 1.085516h0.568148c66.904338 5.877394 120.976365 35.146817 160.648775 87.005025 78.913813 103.011129 82.753711 275.610607 62.065284 392.120152-0.391826 2.23341-0.803244 4.46682-1.214662 6.661047-22.765107 120.506173-89.551897 259.388999-174.362695 362.43931-99.465102 121.172278-212.702897 182.884917-318.711498 173.814139z" fill="#B8A4EB" p-id="1034"></path><path d="M536.616486 28.924773c55.423828-16.613434 115.020605-31.346103 175.577357-26.428683h0.568148c65.239076 5.387611 117.351971 34.010521 157.533757 83.008398 82.636163 100.816902 89.120888 275.728155 68.177773 394.196831q-0.587739 3.408889-1.234253 6.759003c-0.411418 2.194227-0.842427 4.408046-1.273435 6.621864-23.783855 118.586224-89.395166 253.942613-172.403564 355.092568-98.896954 120.408216-211.821288 182.689004-317.947437 173.755365-88.748653-7.503473-169.876284-62.966483-240.973163-165.703335-53.307966-77.091821-90.120045-156.142773-109.711359-232.333394-22.079411-86.31933-23.862221-166.820039-1.390983-240.444197C120.457792 295.484192 179.270917 218.549102 268.195892 154.779375c72.233175-51.819026 162.607907-94.038308 268.420594-125.854602z" fill="#B9A5EB" p-id="1035"></path><path d="M536.851582 30.061069C591.001974 13.81987 649.148994-0.540564 708.216806 3.926256h0.548557c63.612997 4.91742 113.864717 32.835042 154.340372 79.01177 86.574017 98.740223 95.488065 275.865294 74.329446 396.27351-0.411418 2.311775-0.822835 4.603959-1.253844 6.85696s-0.842427 4.408046-1.273435 6.602273c-23.666307 118.213989-88.983749 253.256917-171.913782 354.38728-98.191666 119.702929-210.80254 182.551865-317.026644 173.755365-88.160913-7.346743-169.268954-62.378744-240.405015-165.252734-54.855679-79.481961-91.883263-162.607907-109.711359-241.952729C76.729979 528.4641 75.1039 449.687426 98.241242 377.513024c27.604162-86.201782 86.201782-161.471611 173.853321-223.889537 71.665027-50.898234 160.86428-92.412229 264.757019-123.562418z" fill="#BAA6EC" p-id="1036"></path><path d="M537.106269 31.197365c52.896548-15.868964 109.554628-29.896345 167.133501-25.919308h0.548556C766.736061 9.80365 815.263746 36.93762 855.935315 80.332381c90.668602 96.741909 101.874833 275.982842 80.441935 398.350189-0.411418 2.350958-0.842427 4.662733-1.273435 6.954917s-0.822835 4.388454-1.273436 6.602273c-23.509577 117.822163-88.533148 252.55163-171.345633 353.662402-97.486379 118.997642-209.783791 182.434317-316.125444 173.755364-87.729905-7.209604-168.661623-61.771413-239.87605-164.802134-56.599306-81.872102-93.646481-168.877127-109.711359-251.572064-16.339156-83.890007-17.632183-161.001419 6.151673-231.726063 28.348631-84.438564 86.789521-158.023539 173.108851-219.030892 71.038105-50.016625 159.101062-90.746967 261.073852-121.329008z" fill="#BBA7EC" p-id="1037"></path><path d="M537.360956 32.31407C589.042843 16.856523 644.172801 3.142604 700.282324 6.66904h0.509374c60.302065 3.918263 107.242853 30.366537 147.973196 71.018514C943.645628 172.529105 956.967721 353.827126 935.319319 478.173196c-0.411418 2.370549-0.842427 4.721507-1.273435 7.033282s-0.842427 4.388454-1.273436 6.582682c-23.372438 117.547885-88.160913 251.865934-170.777485 352.957114-96.800683 118.272763-208.765043 182.297178-315.224243 173.755365-87.240122-7.072464-168.073884-61.183674-239.366676-164.312351-58.264568-84.242651-95.468474-175.126757-109.711359-261.210991-13.71392-82.557798-14.556346-158.101905 9.913205-227.376791 29.07351-82.655754 87.35767-154.575468 172.403564-214.152655 70.391592-49.154607 157.27907-89.120888 257.351502-119.134781z" fill="#BBA8ED" p-id="1038"></path><path d="M537.615643 33.450366c50.290903-15.085312 104.06906-28.466179 158.689644-25.468708h0.509374c58.636803 3.487254 104.108243 29.034327 144.779812 67.021886 99.425919 92.88242 114.570005 276.237529 92.666915 402.523139-0.411418 2.39014-0.842427 4.780281-1.273435 7.131238s-0.842427 4.388454-1.273436 6.582682C908.381262 608.435844 844.004204 742.518797 761.446407 843.570795c-95.997439 117.547885-207.667929 182.199221-314.323044 173.774956-86.730747-6.915734-167.446962-60.595934-238.857301-163.881342C148.395006 766.792435 111.014779 672.166388 98.476338 582.653674c-11.304188-81.186406-11.441327-155.221982 13.71392-223.027519 29.837571-80.872945 87.945409-151.127397 171.639502-209.294009 69.901809-48.272998 155.613808-87.455626 253.785883-116.88178z" fill="#BCA9ED" p-id="1039"></path><path d="M537.850739 34.567071c48.978285-14.693486 101.345868-27.741301 154.477512-25.096473a4.094585 4.094585 0 0 1 0.489782 0C749.828757 12.48766 793.928805 37.23149 834.424052 72.495855c104.108243 91.001654 120.976365 276.374668 98.779405 404.61941q-0.626922 3.643984-1.293026 7.229195c-0.411418 2.194227-0.822835 4.368863-1.253845 6.56309-23.117751 116.725049-87.298896 250.474951-169.680371 351.507358-95.390108 116.88178-206.727546 182.042491-313.461025 173.774956-86.201782-6.778595-166.859222-60.008195-238.347928-163.430742-61.5755-89.062114-99.327962-187.410511-109.868089-280.43007-9.031596-79.736648-8.3459-152.302876 17.43627-218.678248 30.582041-79.070544 88.396009-147.816465 170.895032-204.415771 69.333661-47.528528 153.987729-85.790364 250.220264-114.667962z" fill="#BDAAED" p-id="1040"></path><path d="M538.105426 35.703368c47.724441-14.301659 98.603084-27.036013 150.245788-24.841787h0.489783c55.345462 2.52728 98.211258 26.193587 138.412634 59.02863 108.98648 89.042523 127.343542 276.492216 104.891895 406.676498-0.411418 2.468506-0.862018 4.91742-1.293026 7.327151s-0.822835 4.368863-1.253844 6.543499c-23.000203 116.352814-86.867887 249.789255-169.131815 350.80207-94.684821 116.156901-205.708798 181.924943-312.501051 173.774956-85.711999-6.621864-166.251891-59.420456-237.838553-162.960551-63.221171-91.452254-101.38505-193.483818-109.887681-290.049405-6.85696-78.247708-5.230881-149.403361 21.197802-214.309385 31.346103-77.307325 88.944566-144.407576 170.150563-199.557125C360.275068 101.471409 443.773249 63.993225 538.105426 35.703368z" fill="#BEABEE" p-id="1041"></path><path d="M538.360113 36.839664c46.431414-13.929424 95.8603-26.330726 146.014064-24.587099h0.470192c53.699792 1.959131 95.4097 24.665464 135.180067 55.032001 114.099813 87.0638 133.691127 276.629355 111.082751 408.79236a639.474206 639.474206 0 0 1-2.586054 13.968607c-22.843472 115.980579-86.436878 249.083967-168.485301 350.077191-94.038308 115.451614-204.69005 181.787803-311.501894 173.774956-85.202625-6.484725-165.624969-58.773942-237.309588-162.50995C146.161596 757.506153 107.468751 651.830604 101.219122 551.679807c-4.878237-76.739177-2.135453-146.503847 24.959334-209.960113 32.070981-75.504925 89.493123-140.959505 169.386502-194.678888C363.586 101.216722 446.02625 64.541782 538.360113 36.839664z" fill="#BFACEE" p-id="1042"></path><path d="M538.6148 37.956369C583.753188 24.418771 631.732316 12.350521 680.39714 13.721913h0.470192c52.03453 1.567305 92.686507 23.039385 132.025865 51.035373 119.330694 84.928347 140.019122 276.746903 117.156059 410.849448-0.431009 2.52728-0.881609 5.034968-1.33221 7.503473-0.411418 2.174636-0.822835 4.349272-1.253844 6.523908-22.706333 115.588753-86.02546 248.37868-168.015109 349.371904-93.274246 114.746327-203.749667 181.650664-310.679059 173.774956-84.693251-6.347586-165.03723-58.225385-236.800214-162.05935-66.610468-96.252126-105.793096-205.552067-109.985637-309.307667-2.97788-75.191463 0.979566-143.604332 28.720866-205.59125 32.815451-73.741706 90.120045-137.511434 168.661624-189.839833 67.53126-45.001248 148.737257-80.872945 239.249127-108.026506z" fill="#C0ADEF" p-id="1043"></path><path d="M538.869487 39.190621c43.845361-13.145772 90.355141-24.90056 137.570208-24.038542h0.431009c50.408451 1.097114 90.120045 21.354532 128.852073 47.019154C930.499856 144.787804 952.089484 338.937727 928.991325 475.018995c-0.431009 2.566462-0.881609 5.093742-1.351801 7.60143q-0.587739 3.252158-1.234253 6.523907c-22.588785 115.216518-85.614043 247.673393-167.466553 348.725391-92.568959 114.041039-202.632962 181.513525-309.777858 173.774956-84.242651-6.190855-164.429899-57.637646-236.290839-161.589159-68.197364-98.642266-108.281193-211.586192-110.005229-318.946593-1.19507-73.64375 4.074993-140.685226 32.482399-201.241978 33.559921-71.939305 90.629419-134.063362 167.917153-184.961597C370.227456 100.766122 450.277565 65.658487 538.869487 39.190621z" fill="#C1AEEF" p-id="1044"></path><path d="M539.104583 40.228961C581.676509 27.435833 626.736531 16.033688 672.462658 16.445106h0.431009c48.743189 0.607331 87.5144 19.591314 125.658689 43.100891 130.419378 80.324388 152.714293 276.981999 129.302673 415.002806-0.431009 2.586053-0.881609 5.172107-1.351801 7.699387l-1.234253 6.504316c-22.451646 114.863875-85.183034 246.987697-166.917996 347.941738-91.863672 113.316161-201.614213 181.395977-308.857067 173.774956-83.694094-6.053716-163.822568-57.049907-235.781465-161.138558-69.843035-101.032407-110.828064-217.463586-110.044411-328.565929 0.489783-72.096036 7.170421-137.785712 36.243931-196.873115 34.304391-70.176087 91.177976-130.634882 167.172683-180.102951 66.453737-43.257622 145.347959-77.581604 232.019933-103.559686z" fill="#C2AFEF" p-id="1045"></path><path d="M539.35927 41.345666c41.278899-12.381711 84.889164-23.509577 129.126351-23.509577h0.411418c47.019154 0.137139 85.026303 17.632183 122.484896 39.06508 136.237998 77.581604 159.08147 277.099547 135.493528 417.059895-0.431009 2.625236-0.9012 5.230881-1.371392 7.836525-0.391826 2.174636-0.803244 4.32968-1.214662 6.484725-22.314507 114.49164-84.771616 246.302001-166.369439 347.236451C666.761586 948.090456 557.324505 1016.797195 449.944513 1009.254539c-83.18472-5.877394-163.215238-56.462167-235.272091-160.648776C143.203308 745.144033 101.219122 624.970913 104.608419 510.381317c2.115862-70.528731 10.305031-134.886198 40.025055-192.523844 35.048861-68.373686 91.746124-127.16722 166.52617-175.224713 65.709267-42.33683 143.447602-75.857568 228.199626-101.287094z" fill="#C2AFF0" p-id="1046"></path><path d="M539.613957 42.481962c39.985872-11.989884 82.14638-22.765107 124.894628-23.25489h0.411417c45.432257-0.333052 82.577389 15.790599 119.291512 35.068453 142.23294 74.642907 165.429056 277.217094 141.606018 419.136573-0.431009 2.664419-0.9012 5.289655-1.371392 7.836526-0.391826 2.174636-0.803244 4.32968-1.214662 6.484725-22.196959 114.119405-84.360198 245.596713-165.820882 346.491981-90.453097 112.023134-199.557125 181.200064-307.054666 173.853321-82.655754-5.759846-162.607907-55.874428-234.743125-160.217766C142.458838 742.048606 99.25999 618.329457 105.490028 500.056694 109.055647 431.016903 118.851304 368.089602 149.257024 311.901714c35.812922-66.610468 92.333863-123.719148 165.703335-170.444433 65.239076-41.376855 141.801931-74.133533 224.653598-98.975319z" fill="#C3B0F0" p-id="1047"></path><path d="M539.868644 43.598667c38.692845-11.598058 79.403596-22.040228 120.662904-22.980611h0.391826c43.786587-0.822835 80.167657 13.71392 116.117719 31.071824 148.384613 71.390749 171.796233 277.354234 147.718508 421.213253-0.4506 2.703601-0.9012 5.36802-1.390983 7.993256-0.391826 2.174636-0.783653 4.32968-1.214662 6.465134-22.040228 113.74717-83.92919 244.891426-165.252734 345.786693C667.153412 944.309332 558.362845 1014.152367 450.767348 1007.001538c-82.165971-5.603116-162.000576-55.286688-234.233751-159.767167C141.714368 738.953178 97.300859 611.609637 106.371637 489.790846c5.07415-67.472486 16.495886-129.067577 47.528528-183.805709 36.557392-64.808067 92.902011-120.251486 164.958865-165.48783C383.529958 99.923695 458.917334 67.872305 539.868644 43.598667z" fill="#C4B1F0" p-id="1048"></path><path d="M540.064557 44.734963c37.41941-11.225823 76.680403-21.334941 116.470363-22.706333h0.372235c42.140917-1.293027 77.777517 11.754788 112.904743 27.075196 154.771381 67.746764 178.16341 277.471781 153.870181 423.309524-0.470192 2.723193-0.920792 5.407203-1.410575 8.071621-0.391826 2.174636-0.803244 4.310089-1.214661 6.445543-21.92268 113.374935-83.517772 244.225321-164.704178 345.081406-88.944566 110.47542-197.480446 180.867012-305.193491 173.774956-81.656597-5.465977-161.393245-54.698949-233.724377-159.316566C140.969898 735.857751 94.949901 604.850633 107.233655 479.407449c6.465134-65.944363 19.591314-126.168063 51.309652-179.436846 37.223497-63.044849 93.47016-116.803415 164.214395-160.648775C386.860481 99.649417 461.09197 68.440453 540.064557 44.734963z" fill="#C5B2F1" p-id="1049"></path><path d="M540.358427 45.87126c36.145974-10.833997 73.937619-20.629654 112.238639-22.35369h0.352643c40.495246-1.78281 75.406968 9.501787 109.711359 23.078568 161.099376 63.652179 184.530587 277.608921 159.982671 425.386203-0.470192 2.742784-0.940383 5.485568-1.430166 8.169578-0.372235 2.155045-0.783653 4.310089-1.19507 6.445542-21.785541 113.0027-83.086763 243.520034-164.13603 344.356528-88.337235 109.711359-196.520472 180.749464-304.331473 173.794547-81.147223-5.328837-160.805506-54.091618-233.136637-158.846374C140.225428 732.72314 92.54017 598.052447 108.115264 469.082827c7.836526-64.455423 22.706333-123.248957 55.051593-175.087574 38.046332-61.242448 94.038308-113.316161 163.489516-155.750948 63.534632-38.810393 136.590642-69.255295 213.702054-92.373045z" fill="#C6B3F1" p-id="1050"></path><path d="M540.613114 47.027147c34.852948-10.44217 71.194835-19.904775 108.006915-22.177367h0.352643c38.829985-2.253001 73.036419 7.268378 106.537566 19.081939 167.603692 59.067812 190.878173 277.726469 166.095161 427.462883-0.470192 2.781967-0.940383 5.544342-1.430166 8.267534-0.391826 2.155045-0.783653 4.310089-1.19507 6.425951-21.648402 112.630465-82.675345 242.814747-163.587472 343.651241-87.631948 109.025663-195.501723 180.553551-303.489047 173.735773-80.637849-5.172107-160.198175-53.503879-232.686037-158.395774C139.480958 729.666895 89.934525 591.195487 109.055647 458.758204 118.067652 395.752538 134.818225 338.408762 167.82959 288.00031c38.790802-59.47923 94.626047-109.868089 162.745046-150.853118 62.946892-37.928784 134.847015-67.609625 210.038478-90.120045z" fill="#C7B4F2" p-id="1051"></path><path d="M540.867801 48.124261c33.559921-10.069935 68.452051-19.199488 103.833965-21.922681h0.333052c37.223497-2.723193 70.66587 4.956602 103.363773 15.085312 174.166782 53.915296 197.24535 277.844016 172.207651 429.539562-0.470192 2.821149-0.940383 5.622707-1.430166 8.365491-0.391826 2.155045-0.803244 4.290498-1.19507 6.425951-21.550446 112.25823-82.283519 242.10946-163.038916 342.847996-86.926661 108.37915-194.463384 180.475185-302.529072 173.794548-80.128475-5.034968-159.571253-52.896548-232.176663-157.945175-81.441093-117.802572-133.025023-260.094286-110.299098-395.940457 10.28544-61.555909 28.91678-117.449928 62.574657-166.36944 39.535272-57.676829 95.213786-106.380836 162.000576-146.014064C396.852051 99.022495 467.576695 70.105715 540.867801 48.124261z" fill="#C8B5F2" p-id="1052"></path><path d="M541.102897 49.240966c32.286486-9.678109 65.728859-18.474609 99.563058-21.550446h0.333053c35.538644-3.212976 68.256138 2.586053 100.170389 11.088684 180.769055 48.15545 203.592936 277.981156 178.280958 431.616241-0.470192 2.860332-0.940383 5.681481-1.449757 8.463447q-0.587739 3.232567-1.175479 6.40636c-21.393715 111.885995-81.85251 241.423764-162.490359 342.221075-86.201782 107.654271-193.444635 180.357638-301.608281 173.794547-79.638692-4.878237-158.983514-52.3284-231.667289-157.474983-83.106354-120.212303-136.943285-266.441872-110.357872-405.540202 11.500101-60.164926 32.031799-114.550413 66.355781-162.000576C217.376023 220.194772 272.878216 173.19521 338.274022 134.952965c61.928144-36.145974 131.477309-64.298693 202.828875-85.711999z" fill="#C9B6F2" p-id="1053"></path><path d="M541.357584 50.377262c30.993459-9.286283 62.986075-17.769322 95.331335-21.374124h0.313461c33.892973-3.683167 65.826815 0.156731 96.996596 7.092056 187.332145 41.709908 209.960113 278.19666 184.43263 433.712511-0.470192 2.879923-0.959974 5.720664-1.449757 8.541813-0.391826 2.155045-0.783653 4.290498-1.19507 6.386769-21.236984 111.533351-81.40191 240.738068-161.922211 341.515787-85.516086 106.948984-192.425887 180.24009-300.70708 173.794547C374.047762 995.246749 294.781305 948.227595 221.999573 842.983056 137.26714 720.400204 80.981294 570.115233 111.62211 427.784336c12.655989-58.773942 35.127226-111.67049 70.097721-157.651304C222.685269 216.021822 278.187462 170.844252 342.192285 133.855851c61.41877-35.107635 129.714091-62.653022 199.165299-83.478589z" fill="#C9B7F3" p-id="1054"></path><path d="M541.612271 51.513558c29.700432-8.914048 60.243291-17.064035 91.119202-21.119437h0.29387a305.800822 305.800822 0 0 1 93.78362 3.095428c193.856053 34.578669 216.32729 278.19666 190.584304 435.789191-0.489783 2.919106-0.979566 5.877394-1.48894 8.639769-0.372235 2.155045-0.764061 4.270906-1.175479 6.386769-21.119437 111.141525-80.990492 240.03278-161.373654 340.771317-84.810799 106.263288-191.407139 180.10295-299.747106 173.814139-78.619943-4.584367-157.768852-51.152921-230.64854-156.573783C136.483487 717.304776 77.591997 563.023178 112.503719 417.459714c13.71392-57.480916 38.222654-108.731793 73.859254-153.282442C228.131654 211.829281 283.418343 168.336564 346.110548 132.758738c60.83103-34.245617 127.970464-60.987761 195.501723-81.24518z" fill="#CAB8F3" p-id="1055"></path><path d="M541.866958 52.630263c28.407405-8.522222 57.500507-16.339156 86.887478-20.845158h0.274279a319.33842 319.33842 0 0 1 90.609827-0.901201c200.203639 26.702961 222.694467 278.353391 196.696794 437.86587-0.489783 2.938697-0.979566 5.877394-1.48894 8.737726-0.391826 2.155045-0.783653 4.270906-1.175479 6.367177-20.962706 110.730107-80.579075 239.307902-160.825097 340.026848-84.105511 105.558-190.38839 179.965811-298.885088 173.814138-78.110569-4.447228-157.161522-50.54559-230.119575-156.10359C135.7782 714.209348 74.006787 555.735209 113.365737 407.135091a380.600459 380.600459 0 0 1 77.640377-148.893987C233.519266 207.675923 288.59045 165.828876 350.028811 131.661624c60.243291-33.364008 126.207245-59.34209 191.838147-79.031361z" fill="#CBB9F4" p-id="1056"></path><path d="M913.768874 477.017309c-0.372235 2.135453-0.764061 4.270906-1.155888 6.367177C854.544331 790.811387 498.295876 1236.611739 224.742357 840.886785 135.03373 711.172695 70.206072 548.310101 114.247346 396.810469c53.288374-183.257152 245.087339-288.227413 427.874299-343.04391 55.325871-16.593843 112.787195-30.582041 170.346476-25.468708 210.136435 18.357061 229.825706 288.109865 201.300753 448.719458z" fill="#CCBAF4" p-id="1057"></path></svg>