<?xml version="1.0" standalone="no"?><!DOCTYPE svg PUBLIC "-//W3C//DTD SVG 1.1//EN" "http://www.w3.org/Graphics/SVG/1.1/DTD/svg11.dtd"><svg t="1712108161983" class="icon" viewBox="0 0 1364 1024" version="1.1" xmlns="http://www.w3.org/2000/svg" p-id="19275" xmlns:xlink="http://www.w3.org/1999/xlink" width="266.40625" height="200"><path d="M962.016 658.688c48-36 96-78.016 126.016-132l6.016-12c6.016-6.016 6.016-12 12-18.016l6.016-12c30.016-66.016 48-138.016 42.016-222.016 0-24-6.016-114.016-18.016-144-36 12-96 54.016-114.016 96-66.016-12-144-6.016-210.016 0C800 166.688 746.016 130.688 704 112.704c-18.016 30.016-24 102.016-24 150.016 0 42.016 6.016 84 18.016 126.016 0-0.032 89.984 215.936 264 269.952z" fill="#8A8A8A" p-id="19276"></path><path d="M1226.016 874.688c-24-24-66.016-36-102.016-36-18.016-18.016-90.016-102.016-138.016-144l-24 18.016-17.984-6.016c-186.016-60-282.016-288-288-293.984-132 30.016-270.016 114.016-354.016 197.984l-12 18.016-17.984 17.984c-96 108-168 222.016-168 240v12h126.016v-12c-6.016-36 5.984-84 36-120 18.016-24 48-48 96-60 42.016-12 144 0 144 0 204 18.016 396 102.016 618.016 216h120v-6.016c-0.032-17.984-6.016-29.984-18.016-41.984zM266.016 592.672l5.984-12 6.016-6.016c-24-36-36-72-36-101.984-6.016-42.016 0-84 30.016-114.016 42.016-54.016 96-54.016 156-48 0 12 0 18.016 6.016 24 18.016 24 102.016 36 150.016 12-36-54.016-114.016-78.016-132-66.016-6.016 0-12 6.016-18.016 12-18.016 0-42.016-6.016-54.016-6.016-54.016 0-96 24-126.016 60s-42.016 84-36 132c5.984 36.064 24 78.048 48 114.048z" fill="#8A8A8A" p-id="19277"></path><path d="M596 796.672c-12-12-36-12-60-6.016a116.224 116.224 0 0 1-30.016-54.016h-6.016s-66.016-6.016-108-6.016c36 30.016 78.016 66.016 126.016 96h96v-12c0.032 0.064-5.984-11.936-17.984-17.952z" fill="#8A8A8A" p-id="19278"></path></svg>