<?xml version="1.0" standalone="no"?><!DOCTYPE svg PUBLIC "-//W3C//DTD SVG 1.1//EN" "http://www.w3.org/Graphics/SVG/1.1/DTD/svg11.dtd"><svg t="1712125949798" class="icon" viewBox="0 0 1024 1024" version="1.1" xmlns="http://www.w3.org/2000/svg" p-id="1773" xmlns:xlink="http://www.w3.org/1999/xlink" width="200" height="200"><path d="M584.611898 236.445164C584.611898 120.43707 454.785917 12.613517 449.269122 8.080939L439.388102 0v1024l10.839336-10.606232C491.499798 973.053824 541.69486 910.620801 546.628895 842.269527l2.719547-37.892352c1.13962-14.763254 11.344395-148.215297 20.38365-283.078915l1.295023-18.389316h-0.090652c9.078106-136.70255 13.675435-226.30514 13.675435-266.46378z" fill="#B4A0EA" p-id="1774"></path><path d="M584.029138 236.989073C584.029138 121.136382 454.216107 13.36463 448.893565 9.065156L439.388102 19.347633v986.068798l10.437879 8.042088c41.181708-40.275192 91.299069-102.591663 96.194254-170.761635 0-0.427357 2.693646-37.387293 2.732497-37.879401 1.16552-14.853905 11.357345-148.241198 20.40955-283.091866 0-0.064751 1.295022-17.793606 1.295023-17.793606h-0.090652c8.987454-135.912586 13.662485-226.538244 13.662485-266.942938z" fill="#B5A1EA" p-id="1775"></path><path d="M583.459328 237.40348C583.459328 121.822744 453.633347 14.115743 448.530959 9.91987L439.388102 38.682315V986.806961l10.036422 26.690408c41.116957-40.14569 91.130716-102.39741 96.025901-170.386078 0-0.867665 2.590045-36.895184 2.732497-37.892351 1.13962-14.918656 11.331445-148.228248 20.38365-283.078916 0-0.129502 1.295022-17.210846 1.295022-17.210846h-0.090651c8.922703-135.096722 13.688385-226.745447 13.688385-267.525698z" fill="#B6A2EB" p-id="1776"></path><path d="M582.876568 237.869688c0-115.347633-129.800081-222.989883-134.682315-227.030352L439.388102 58.029947v910.219345l9.647916 45.325779c41.039255-40.14569 90.975314-102.216107 95.831647-170.023472 0.090652-1.295022 2.590045-36.377175 2.732497-37.892352 1.13962-14.983408 11.331445-148.228248 20.3707-283.078915l1.19142-16.615136h-0.077701c8.948604-134.293808 13.791987-226.978551 13.791987-268.095508z" fill="#B7A3EB" p-id="1777"></path><path d="M582.306758 238.348847c0-115.127479-129.800081-222.743828-134.501011-226.628896L439.388102 77.37758v872.288142l9.246459 63.98705c40.974504-40.14569 90.819911-102.021854 95.689195-169.647916 0.116552-1.72238 2.590045-35.885067 2.719546-37.905301C548.169972 791.038446 558.387697 657.871307 567.439903 523.03359c0-0.246054 1.15257-16.032376 1.15257-16.032376h-0.090652c8.870902-133.542695 13.804937-227.276406 13.804937-268.652367z" fill="#B8A4EB" p-id="1778"></path><path d="M581.723998 238.828005C581.723998 123.92068 451.936868 16.382032 447.44314 12.678268L439.388102 96.712262V931.121004l8.845002 82.63537c40.909753-40.016188 90.651558-101.84055 95.507892-169.28531l2.745447-37.931202c1.16552-15.13881 11.331445-148.241198 20.38365-283.078915 0-0.297855 1.100769-15.436665 1.100769-15.436665h-0.077701c8.767301-132.752732 13.830838-227.457709 13.830837-269.196277z" fill="#B8A5EC" p-id="1779"></path><path d="M581.154189 239.294213C581.154189 124.619992 451.367058 17.133144 447.080534 13.610684L439.388102 116.059895v796.438689l8.443545 101.28369C488.689599 973.856738 538.340753 912.135977 543.184136 844.872521c0.181303-2.590045 2.512343-34.8879 2.732497-37.905301 1.16552-15.203561 11.318495-148.241198 20.38365-283.065965l1.074869-14.853906h-0.077702c8.7414-131.962768 13.856738-227.690813 13.856739-269.753136z" fill="#B9A6EC" p-id="1780"></path><path d="M580.545528 239.773371C580.545528 125.319304 450.797248 17.884257 446.704978 14.53015L439.388102 135.394577v758.520437l8.029138 119.932011c40.793201-39.886686 90.353703-101.464994 95.184136-168.547146 0.207204-3.004452 2.473493-34.382841 2.719547-37.905302 1.17847-15.281263 11.331445-148.241198 20.38365-283.065965 0-0.414407 1.023068-14.245245 1.023068-14.245245h-0.077702C575.365439 378.897612 580.545528 282.146499 580.545528 239.773371z" fill="#BAA7ED" p-id="1781"></path><path d="M580.001619 240.252529C580.001619 126.018616 450.227438 18.63537 446.342372 15.449616L439.388102 154.74221v720.589235l7.627681 138.567381c40.7155-39.821934 90.18535-101.270741 95.002833-168.17159 0.246054-3.444759 2.447592-33.890732 2.732497-37.905302 1.17847-15.358964 11.331445-148.254148 20.38365-283.065965 0-0.479158 0.971267-13.675435 0.971267-13.675435 8.611898-130.34399 13.895589-228.131121 13.895589-270.828005z" fill="#BBA8ED" p-id="1782"></path><path d="M579.431809 240.718737c0-113.961959-129.77418-221.332254-133.387293-224.349656L439.388102 174.089842v682.658033L446.627276 1014.002428C487.303926 974.219344 536.657224 912.88709 541.461756 846.167544c0.271955-3.885067 2.395791-33.385674 2.732497-37.905302 1.17847-15.423715 11.331445-148.254148 20.3707-283.065965l0.945367-13.079725c8.560097-129.592877 13.921489-228.377175 13.921489-271.397815z" fill="#BCA9ED" p-id="1783"></path><path d="M578.849049 241.197896c0-113.780656-129.76123-221.060299-133.23189-223.909349L439.388102 193.424524v644.739782L446.22582 1014.002428c40.585998-39.679482 89.874545-100.882234 94.666127-167.420477 0.297855-4.299474 2.356941-32.893565 2.719546-37.918252 1.19142-15.540267 11.344395-148.254148 20.383651-283.053015 0-0.60866 0.893565-12.496965 0.893565-12.496965 8.508296-128.777013 13.96034-228.584379 13.96034-271.915823z" fill="#BDAAEE" p-id="1784"></path><path d="M578.279239 241.677054c0-113.573452-129.74828-220.788345-133.024686-223.469041L439.388102 212.772157v606.82153l6.475111 194.499393c40.521246-39.614731 89.706192-100.700931 94.536625-167.057872 0.336706-4.726831 2.33104-32.375556 2.732497-37.918251 1.19142-15.540267 11.331445-148.254148 20.38365-283.053015 0-0.660461 0.854715-11.901255 0.854715-11.901255 8.404694-128.01295 13.908539-228.843383 13.908539-272.485633z" fill="#BEABEE" p-id="1785"></path><path d="M577.696479 242.169162C577.696479 128.802914 447.961149 21.639822 444.878996 19.127479L439.388102 232.11979v568.890327l6.034804 213.147714c40.443545-39.54998 89.550789-100.519628 94.316471-166.682315 0.375556-5.180089 2.292189-31.896398 2.732497-37.918252 1.19142-15.643869 11.331445-148.267098 20.3707-283.053015l0.815864-11.318494c8.404694-127.222987 14.038041-229.063537 14.038041-273.016593z" fill="#BFACEE" p-id="1786"></path><path d="M577.126669 242.62242C577.126669 129.502226 447.39134 22.390935 444.568191 20.046945L439.388102 251.454472v530.959126l5.620397 231.808984c40.378794-39.485229 89.356536-100.325374 94.148118-166.319709 0.401457-5.594496 2.253339-31.39134 2.719546-37.918251 1.204371-15.72157 11.344395-148.267098 20.383651-283.053015 0-0.777013 0.764063-10.722784 0.764063-10.722785 8.378794-126.407123 14.102792-229.296641 14.102792-273.586402z" fill="#C0ADEF" p-id="1787"></path><path d="M576.543909 243.101578c0-112.90004-129.72238-219.959531-132.390125-222.135168L439.388102 270.802104v493.040875l5.180089 250.444354c40.314043-39.420478 89.227034-100.144071 93.966815-165.944152 0.440308-6.021854 2.227438-30.899231 2.732497-37.931202 1.217321-15.786321 11.331445-148.267098 20.38365-283.040065 0-0.841764 0.725212-10.140024 0.725213-10.140024 8.365844-125.643059 14.167544-229.529745 14.167543-274.130312z" fill="#C0ADEF" p-id="1788"></path><path d="M575.9741 243.567786c0-112.666936-129.72238-219.661675-132.182922-221.68191L439.388102 290.084986v455.174423l4.830433 269.092675c40.249292-39.355726 89.071631-99.949818 93.798462-165.581546l2.732497-37.918251C541.966815 794.988264 552.055038 662.572238 561.120194 527.799272l0.686362-9.544314c8.275192-124.853096 14.167544-229.762849 14.167544-274.687172z" fill="#C1AEF0" p-id="1789"></path><path d="M575.365439 244.046945C575.365439 131.600162 445.68191 24.605423 443.428571 22.805342L439.388102 309.51032v417.16552l4.428976 287.740995c40.14569-39.290975 88.916228-99.716714 93.630109-165.205989 0.492108-6.889518 2.149737-29.889114 2.719547-37.931202 1.295022-15.941724 11.344395-148.280049 20.38365-283.040065 0-0.971267 0.647511-8.961554 0.647512-8.961554 8.223391-124.063132 14.167544-229.995953 14.167543-275.23108z" fill="#C2AFF0" p-id="1790"></path><path d="M574.82153 244.526103c0-112.226629-129.709429-219.117766-131.768515-220.801295L439.388102 328.832052v379.260218l4.014569 306.389316c40.14569-39.226224 88.747875-99.574261 93.448806-164.843383 0.530959-7.303926 2.123837-29.384055 2.732497-37.931202 1.295022-16.006475 11.331445-148.280049 20.38365-283.040065 0-1.023068 0.59571-8.365844 0.595711-8.365843 8.197491-123.273169 14.258195-230.216107 14.258195-275.77499z" fill="#C3B0F0" p-id="1791"></path><path d="M574.25172 244.992311C574.25172 132.998786 444.568191 26.15945 442.690409 24.605423L439.388102 348.166734v341.341967l3.613112 325.050587c40.042088-39.174423 88.592473-99.392958 93.241603-164.467827 0.55686-7.770134 2.084986-28.891947 2.732497-37.944152 1.295022-16.071226 11.331445-148.280049 20.3707-283.027115l0.556859-7.770133c8.184541-122.483205 14.348847-230.475111 14.348847-276.35775z" fill="#C4B1F1" p-id="1792"></path><path d="M573.66896 245.471469c0-111.773371-129.696479-218.560907-131.341157-219.90773L439.388102 367.514367v303.410765l3.224605 343.685957c39.977337-39.109672 88.43707-99.198705 93.112101-164.105221 0.58276-8.17159 2.033185-28.386888 2.719547-37.931202C539.687576 796.438689 549.788749 664.346418 558.828005 529.534601c0.077701-1.13962 0.518009-7.187374 0.518009-7.187373 8.080939-121.693242 14.322946-230.682315 14.322946-276.875759z" fill="#C5B2F1" p-id="1793"></path><path d="M573.09915 245.950627C573.09915 134.39741 443.402671 27.661675 441.978146 26.483205L439.388102 386.861999v265.479563l2.823149 362.334278C482.123837 975.630919 530.479968 915.658438 535.142048 850.946176c0.621611-8.611898 2.007285-27.894779 2.732497-37.944153 1.295022-16.226629 11.344395-148.292999 20.38365-283.040064 0.077701-1.19142 0.466208-6.591663 0.466208-6.591664 8.042088-120.903278 14.374747-230.915419 14.374747-277.419668z" fill="#C6B3F1" p-id="1794"></path><path d="M572.51639 246.429786c0-111.371914-129.683529-218.016997-130.9138-219.027115L439.388102 406.196682v227.561311l2.408741 380.969648c39.847835-38.96722 88.126265-98.810198 92.775395-163.354108 0.647511-9.065156 1.968434-27.389721 2.732497-37.944152 1.295022-16.29138 11.331445-148.292999 20.3707-283.027115 0.090652-1.295022 0.440308-6.008903 0.440308-6.008903 7.990287-120.113314 14.400648-231.148523 14.400647-277.963577z" fill="#C7B4F2" p-id="1795"></path><path d="M571.94658 246.895994c0-111.11291-129.683529-217.732092-130.706596-218.573857L439.388102 425.544314V615.135573l2.007284 399.656819c39.783084-38.850668 87.970862-98.628895 92.607042-162.978551 0.673412-9.466613 1.929583-26.897612 2.732497-37.944153 1.295022-16.382032 11.331445-148.305949 20.3707-283.040064 0.090652-1.295022 0.388507-5.413193 0.388507-5.413193 7.951437-119.323351 14.452448-231.368677 14.452448-278.520437z" fill="#C8B5F2" p-id="1796"></path><path d="M571.36382 247.349251c0-110.866856-129.670579-217.434237-130.499393-218.107648L439.388102 444.878996v151.711858l1.605828 418.292189c39.718333-38.850668 87.802509-98.421692 92.425738-162.615945 0.712262-9.89397 1.903683-26.392554 2.732497-37.944152 1.295022-16.446783 11.344395-148.305949 20.38365-283.027114 0.090652-1.372724 0.336706-4.830433 0.336706-4.830433C564.785107 407.932011 571.36382 294.837718 571.36382 247.349251z" fill="#C8B6F3" p-id="1797"></path><path d="M570.794011 247.85431C570.794011 137.181708 441.123432 30.666127 440.501821 30.161068L439.388102 464.226629v113.780656l1.204371 436.914609c39.640631-38.772966 87.647106-98.253339 92.257385-162.240389 0.738163-10.360178 1.864832-25.900445 2.732497-37.957102C536.851477 798.212869 546.874949 666.418454 555.940105 531.697289c0.103602-1.437475 0.310805-4.234723 0.310806-4.234723 7.860785-117.743424 14.5431-231.834885 14.5431-279.608256z" fill="#C9B7F3" p-id="1798"></path><path d="M570.18535 248.320518C570.18535 137.88102 440.553622 31.41724 440.139215 31.080534L439.388102 483.574261V559.449616l0.802914 455.537029c39.57588-38.708215 87.491704-98.072036 92.089033-161.877782 0.764063-10.748685 1.825981-25.395386 2.732497-37.957103 1.295022-16.576285 11.331445-148.305949 20.3707-283.014164 0.103602-1.502226 0.259004-3.651963 0.259004-3.651963C563.451234 411.532173 570.18535 296.417645 570.18535 248.320518z" fill="#CAB8F3" p-id="1799"></path><path d="M569.641441 248.799676C569.641441 138.567382 439.983812 32.168353 439.776609 32L439.388102 502.908944v37.931202l0.401457 474.21125c39.511129-38.643464 87.336301-97.877782 91.94658-161.502226 0.802914-11.188992 1.800081-24.903278 2.732497-37.957102 1.295022-16.666936 11.344395-148.318899 20.383651-283.027115l0.220153-3.056252c7.718333-116.163497 14.569-232.288142 14.569001-280.709025z" fill="#CBB9F4" p-id="1800"></path><path d="M569.071631 249.278834C569.071631 139.279644 439.388102 32.919466 439.388102 32.919466v982.196681c39.446378-38.578713 87.167948-97.696479 91.739377-161.139619 0.828814-11.6552 1.76123-24.398219 2.732497-37.957103 1.295022-16.731688 11.331445-148.318899 20.3707-283.014164 0.116552-1.618778 0.181303-2.473493 0.181303-2.473492 7.718333-115.373533 14.659652-232.521246 14.659652-281.252935z" fill="#CCBAF4" p-id="1801"></path></svg>